subject01_walk1_RRA_states
nRows=4
nColumns=47

# SIMM Motion File Header:
name subject01_walk1_RRA_states
datacolumns 47
datarows 4
otherdata 1
range 0.86900000000000011000 0.87050000000000005000
endheader
time	pelvis_tx	pelvis_ty	pelvis_tz	pelvis_tilt	pelvis_list	pelvis_rotation	hip_flexion_r	hip_adduction_r	hip_rotation_r	knee_angle_r	ankle_angle_r	subtalar_angle_r	mtp_angle_r	hip_flexion_l	hip_adduction_l	hip_rotation_l	knee_angle_l	ankle_angle_l	subtalar_angle_l	mtp_angle_l	lumbar_extension	lumbar_bending	lumbar_rotation	pelvis_tx_u	pelvis_ty_u	pelvis_tz_u	pelvis_tilt_u	pelvis_list_u	pelvis_rotation_u	hip_flexion_r_u	hip_adduction_r_u	hip_rotation_r_u	knee_angle_r_u	ankle_angle_r_u	subtalar_angle_r_u	mtp_angle_r_u	hip_flexion_l_u	hip_adduction_l_u	hip_rotation_l_u	knee_angle_l_u	ankle_angle_l_u	subtalar_angle_l_u	mtp_angle_l_u	lumbar_extension_u	lumbar_bending_u	lumbar_rotation_u
      0.86900000000000011000	      0.60502564520105540000	      1.03066001059791420000	      0.03238257410993739000	      4.96758648711179160000	     -1.79457102917753630000	      3.21493517029874940000	     10.05768035013976400000	      2.19445976932643380000	     -7.01324767576585460000	    -20.44680695371915400000	      5.38220248983998050000	      0.02232220348307739600	      0.05509903723694088000	      4.93530159631804200000	     -6.94294180050778480000	     -4.04167094065272800000	    -66.74092754281903700000	     -5.67513666543750440000	      0.01839503894922036100	     -0.08639226183934865800	    -15.31315964347599700000	      4.96306834785394720000	     -3.75431698416674700000	     -0.04773707958807826100	      0.19124261272216148000	      0.18527167331451980000	      5.97750368629499370000	     -1.34771564877894920000	    -11.78878306169516700000	   -111.00888530126399000000	     23.01413752431966800000	     15.11047496367929600000	     73.92258241213616500000	     28.27105574561029800000	      0.27780455896239387000	     -0.40018704160979690000	    144.65785247767894000000	    -13.92742454575097500000	    -18.60593391953197100000	   -118.59614039151863000000	     71.94071008618672600000	     -0.05751178834448603800	      0.20076387091922987000	     -5.92399610928567720000	     -6.95189561551261730000	     37.91499371619018200000
      0.86950000000000005000	      0.60500167755541479000	      1.03075561128654210000	      0.03247506901700966700	      4.97056913641748550000	     -1.79516223913311520000	      3.20901158625504080000	     10.00216689629542100000	      2.20586779246479430000	     -7.00564343012918120000	    -20.40980318559297800000	      5.39628926423196820000	      0.02246152479555766800	      0.05489785198997419700	      5.00754488724565050000	     -6.94970484485857120000	     -4.05084738989953230000	    -66.79982140538113800000	     -5.63899134642992460000	      0.01836616948648361900	     -0.08629129795672292600	    -15.31612880148756900000	      4.95949726246406190000	     -3.73535893495580320000	     -0.04813348379762183400	      0.19115857965919145000	      0.18470762697070725000	      5.95294881978872240000	     -1.01732383337441660000	    -11.90559432931957300000	   -111.04451399630020000000	     22.61804897002489100000	     15.30636557778125400000	     74.09195536866624800000	     28.07606064696383200000	      0.27933715265338899000	     -0.40418035637847799000	    144.31558692155858000000	    -13.12499754503380700000	    -18.10042829494904000000	   -116.97969809129869000000	     72.63775298390746100000	     -0.05795404526352851400	      0.20307808757951221000	     -5.95247151767040440000	     -7.33213586660383140000	     37.91714485496866900000
      0.87000000000000011000	      0.60497751172797132000	      1.03085116761421450000	      0.03256728141611980900	      4.97353928788013010000	     -1.79558855691381190000	      3.20302952934940240000	      9.94663626478254410000	      2.21707791693407370000	     -6.99794143075136250000	    -20.37271556117355700000	      5.41027881216078030000	      0.02260150758739245000	      0.05469483873703977900	      5.07961746203401890000	     -6.95606704892367400000	     -4.05977193471325220000	    -66.85790762751530300000	     -5.60250173579858140000	      0.01833708657589759900	     -0.08618918870868949600	    -15.31911194813154800000	      4.95573652562187390000	     -3.71639989147349730000	     -0.04852982162877307600	      0.19106516523492972000	      0.18414165362118395000	      5.92750587225854360000	     -0.68815394996744605000	    -12.02268413314609300000	   -111.07757341182977000000	     22.22254916992860500000	     15.50152969157092800000	     74.25795882388945300000	     27.88261172186683000000	      0.28072575627334062000	     -0.40823760433012751000	    143.97499426263613000000	    -12.32407419358088600000	    -17.59831663493241300000	   -115.36557717150181000000	     73.31785480248862500000	     -0.05838707227900565000	      0.20536250875250672000	     -5.97994568166834560000	     -7.71049559464969200000	     37.91898152400592900000
      0.87050000000000005000	      0.60495314774014508000	      1.03094667489492030000	      0.03265921036829852500	      4.97649649503390010000	     -1.79585060885209140000	      3.19698885420416220000	      9.89108975739934060000	      2.22809045774276140000	     -6.99014201913486220000	    -20.33554580762933400000	      5.42417219590415560000	      0.02274207425176626500	      0.05448949070649535700	      5.15152016083288270000	     -6.96202919546155030000	     -4.06844628198504040000	    -66.91518737266244400000	     -5.56567630831369260000	      0.01830778609937677700	     -0.08608594024224174000	    -15.32210858113842600000	      4.95178709141999200000	     -3.69744000058944830000	     -0.04892611926242782700	      0.19096240852671406000	      0.18357386409724494000	      5.90117960992538130000	     -0.36027723064423545000	    -12.14006032646170900000	   -111.10802819575704000000	     21.82774302902941300000	     15.69597931605213900000	     74.42048440180910500000	     27.69106019615270100000	      0.28111280904872221000	     -0.41299450823427963000	    143.63607767776173000000	    -11.52480774746927000000	    -17.09965707657756100000	   -113.75379864711913000000	     73.98105550079743900000	     -0.05879880500167190100	      0.20761810991556348000	     -6.00642359500742980000	     -8.08690927860752320000	     37.92053382258623600000
